<?xml version="1.0" encoding="utf-8"?>
<!-- Generator: Adobe Illustrator 20.1.0, SVG Export Plug-In . SVG Version: 6.00 Build 0)  -->
<svg version="1.1" id="Layer_1" xmlns="http://www.w3.org/2000/svg" xmlns:xlink="http://www.w3.org/1999/xlink" x="0px" y="0px"
	 viewBox="0 0 98.8 30.6" style="enable-background:new 0 0 98.8 30.6;" xml:space="preserve">
<style type="text/css">
	.st0{fill:#010101;}
</style>
<g>
	<path class="st0" d="M22.6,22L21.8,8.8c0-0.6-0.1-1-0.1-1.4c0-0.5,0-0.8,0-0.9c0-0.4,0.1-0.8,1-0.8h0.3v-1h-0.3
		c-0.4,0-0.8,0-1.2,0.1c-0.4,0-0.7,0.1-1.1,0.1c-0.3,0-0.7,0-1-0.1c-0.4,0-0.7-0.1-1.1-0.1H18l-5.4,14.1L7,4.7H6.8
		c-0.3,0-0.6,0-1,0.1c-0.5,0.1-1,0.1-1.7,0.1c-0.2,0-0.5,0-0.8-0.1c-0.5-0.1-1-0.1-1.5-0.1H1.6v1l0.3,0c1,0.1,1.1,0.4,1.1,0.8
		c0,0.7,0,1.3,0,1.7L2.1,22.7c0,0.4-0.3,0.7-1.4,0.8l-0.3,0v1h0.3c0.5,0,1,0,1.5-0.1c0.4,0,0.8-0.1,1.2-0.1c0.4,0,0.9,0,1.3,0.1
		c0.5,0,0.9,0.1,1.4,0.1h0.3v-1H6.1c-1,0-1.5-0.5-1.5-0.9c0-0.1,0-0.6,0-1.1c0-0.5,0.1-1.1,0.1-1.5l0.5-11l6.1,15.5h1.6l5.7-15.1
		l0.5,7.7c0.1,1.1,0.2,4.7,0.2,5.6c0,0.5,0,0.7-1.4,0.9l-0.2,0v0.9h0.3c0.5,0,1.1,0,1.6-0.1c0.5,0,1.1-0.1,1.6-0.1
		c0.4,0,0.9,0,1.3,0.1c0.5,0,0.9,0.1,1.4,0.1h0.3v-1l-0.3,0C23,23.5,22.7,23.2,22.6,22z"/>
	<path class="st0" d="M37.9,22.1V15c0-3.6-2.1-5.5-5.9-5.5c-1.7,0-3.3,0.3-4.6,0.9l-0.2,0.1L27,14.2h0.8l0.1-0.1
		c0.8-1.6,2.1-2.3,4.1-2.3c2,0,3,0.9,3,2.8c0,0.5-0.1,0.7-0.4,0.8L30.4,16c-2.2,0.3-4.9,1.3-4.9,4.6c0,2.7,1.7,4.3,4.7,4.3
		c2.2,0,3.7-0.8,4.8-2.4v2.2l0.3,0c0.2,0,0.4,0,0.6-0.1c0.4-0.1,0.8-0.1,1.1-0.1c0.4,0,0.8,0,1.2,0.1c0.2,0,0.4,0.1,0.6,0.1l0.3,0
		v-1l-0.3,0C38.1,23.5,37.9,23.1,37.9,22.1z M31.1,22.4c-1.1,0-2.4-0.4-2.4-2.1c0-0.9,0.3-2,2.7-2.4l3.4-0.6v0.3
		C34.8,19.6,33.7,22.4,31.1,22.4z"/>
	<path class="st0" d="M52.2,10c-0.9,0-1.8-0.1-2.6-0.2l-0.3,0v1l0.2,0c0.8,0.1,1,0.3,1,0.8c0,0.3-0.3,1.2-2,6.2l-0.9,2.6l-2-5.2
		c-1.2-3-1.4-3.6-1.4-3.8c0-0.4,0.3-0.5,1-0.6l0.4-0.1v-1l-0.3,0c-0.8,0.1-1.7,0.2-2.8,0.2c-0.8,0-1.6-0.1-2.4-0.1l-0.9-0.1v1l0.3,0
		c0.2,0,1,0.1,1.1,0.5l3.6,8.9c0.5,1.2,0.9,2.1,1.1,2.8c0.3,0.7,0.5,1.2,0.5,1.3c0,0.5-0.4,1.2-0.9,2c-0.4,0.7-0.9,1-1.6,1
		c0,0-0.1,0-0.2,0c-0.6,0-0.8-0.4-1-1.1L42.2,26h-0.8l0.2,3.8l0.2,0.1c0.4,0.2,0.9,0.2,1.5,0.2c1.2,0,2.7-0.9,3.3-2.1l0.1-0.2
		c0.5-1,1.1-2,1.6-3.6l4.5-12.2c0.3-0.9,0.5-1.3,1.3-1.3l0.3,0v-1l-0.4,0.1C53.3,10,52.8,10,52.2,10z"/>
	<path class="st0" d="M67.6,22.5c-2.6-3.3-3.9-4.9-5-6.2L62.4,16l6-6.2l-0.9,0.1C66.8,10,66.1,10,65.4,10c-1,0-2-0.1-2.9-0.2l-0.3,0
		v1l0.3,0c1,0.1,1,0.2,1,0.3c0,0.1-0.3,0.8-3.9,4.6V5.2c0-1,0.1-2.1,0.1-3.1c0-0.4,0-0.7,0-1.1l0-0.4l-0.4,0.2c-1,0.4-2.7,0.8-4,1.2
		l-0.6,0.2v0.7l0.2,0c0.1,0,0.2,0,0.3,0.1C55.2,3,55.4,3,55.5,3c0.8,0.2,0.9,0.3,0.9,0.8v18.9c0,0.6-1,0.8-1.4,0.9l-0.3,0v1l0.7-0.1
		c0.8-0.1,1.5-0.1,2.5-0.1c0.9,0,1.6,0.1,2.5,0.1l0.7,0.1v-1l-0.3,0c-0.4,0-1.4-0.2-1.4-0.9V17c1.8,2.1,3.2,3.9,4.5,5.6
		c0.5,0.6,1,1.3,1.4,1.8l0.1,0.1l0.2,0c0.6-0.1,1.2-0.1,1.8-0.1c0.5,0,1.3,0,1.8,0.1l0.3,0v-1l-0.3,0C68.5,23.5,68.3,23.4,67.6,22.5
		z"/>
	<path class="st0" d="M82.4,22.5c-2.6-3.3-3.9-4.9-5-6.2L77.2,16l6-6.2l-0.9,0.1C81.6,10,80.9,10,80.2,10c-1,0-2-0.1-2.9-0.2l-0.3,0
		v1l0.3,0c1,0.1,1,0.2,1,0.3c0,0.1-0.3,0.8-3.9,4.6V5.2c0-1,0.1-2.1,0.1-3.1c0-0.4,0-0.7,0-1.1l0-0.4L74,0.8c-1,0.4-2.7,0.8-4,1.2
		l-0.6,0.2v0.7l0.2,0c0.1,0,0.2,0,0.3,0.1C70,3,70.2,3,70.3,3c0.8,0.2,0.9,0.3,0.9,0.8v18.9c0,0.6-1,0.8-1.4,0.9l-0.3,0v1l0.7-0.1
		c0.8-0.1,1.5-0.1,2.5-0.1c0.9,0,1.6,0.1,2.5,0.1l0.7,0.1v-1l-0.3,0c-0.4,0-1.4-0.2-1.4-0.9V17c1.8,2.1,3.2,3.9,4.5,5.6
		c0.5,0.6,1,1.3,1.4,1.8l0.1,0.1l0.2,0c0.6-0.1,1.2-0.1,1.8-0.1c0.5,0,1.3,0,1.8,0.1l0.3,0v-1l-0.3,0C83.3,23.5,83.1,23.4,82.4,22.5
		z"/>
	<path class="st0" d="M98.4,16.7c0-4.5-2.6-7.1-7.1-7.1c-4.3,0-7.5,3.2-7.5,7.5c0,4.5,3,7.7,7.3,7.7c2.5,0,4.8-0.8,6.3-2.1l0.1-0.1
		l0.3-2.7l-0.5,0.4c-2.4,1.7-3.2,1.9-4.7,1.9c-1.6,0-3-0.5-4-1.5c-0.9-0.9-1.5-2.3-1.5-3.8h11.3V16.7z M87.4,14.9
		c0.4-1.9,2-3.3,4-3.3c2.1,0,3.5,1.3,3.6,3.3H87.4z"/>
</g>
</svg>
