<?xml version="1.0" encoding="utf-8"?>
<!-- Generator: Adobe Illustrator 16.0.0, SVG Export Plug-In . SVG Version: 6.00 Build 0)  -->
<!DOCTYPE svg PUBLIC "-//W3C//DTD SVG 1.1//EN" "http://www.w3.org/Graphics/SVG/1.1/DTD/svg11.dtd">
<svg version="1.1" id="Livello_1" xmlns="http://www.w3.org/2000/svg" xmlns:xlink="http://www.w3.org/1999/xlink" x="0px" y="0px"
	 width="310px" height="168px" viewBox="0 0 310 168" enable-background="new 0 0 310 168" xml:space="preserve">
<circle fill="#C4E4D3" cx="166.684" cy="84" r="63.734"/>
<g>
	<g>
		<path fill="#414042" d="M24.286,93.882C23.063,84.04,42.894,83.14,49.031,82.5c10.221-1.065,20.478-0.895,30.721-1.467
			c10.564-0.591,21.205-3.137,31.156-6.633c8.454-2.97,21.379-8.459,22.314-18.85c0.125-1.385-2.984-0.342-3.365,0.469
			c-5.057,10.742-5.021,22.822-6.705,34.361c-0.126,0.869,1.432,0.678,1.887,0.525c0.236-0.078,0.473-0.157,0.708-0.235
			c0.457-0.152,1.625-0.516,1.485-1.213c-0.026-0.131-0.053-0.263-0.078-0.394c-0.055-0.273-0.422-0.361-0.639-0.404
			c-0.131-0.026-0.263-0.053-0.394-0.079c-0.797-0.159-2.436,0.198-2.733,1.092c-0.078,0.236-0.157,0.472-0.236,0.708
			c1.123-0.156,2.244-0.312,3.367-0.469c4-15.16,19.27-17.045,32.183-20.83c5.008-1.469,10.121-3.428,13.88-7.176
			c4.438-4.425,4.947-10.716,4.226-16.629c-0.06-0.159-0.171-0.267-0.334-0.322c-3.908-1.637-7.409,4.065-9.085,6.565
			c-4.699,7.009-8.389,14.823-11.726,22.551c-2.717,6.291-5.795,13.5-4.683,20.519c0.853,5.384,7.67,0.421,9.519-1.284
			c5.81-5.358,10.17-12.976,17.259-16.768c7.963-4.261,17.633-4.109,25.868-7.731c5.562-2.447,6.686-6.734,3.379-11.825
			c-2.221-3.417-6.753-1.547-8.927,0.86c-4.275,4.731-6.67,11.31-8.919,17.167c-1.821,4.742-3.558,9.607-4.829,14.532
			c-0.325,1.258,2.955,0.336,3.365-0.469c1.533-3.009,3.117-5.924,5.285-8.521c3.778-4.526,8.648,0.343,11.537,3.218
			c3.779,3.761,7.615,4.468,12.741,3.674c8.343-1.291,16.219-6.19,24.358-8.561c9.135-2.66,18.548-4.622,28.028-5.48
			c4.839-0.438,17.632-1.725,17.982,5.719c0.046,0.962,3.436,0.306,3.379-0.905c-0.326-6.91-10.676-6.865-15.54-6.815
			c-10.876,0.113-21.866,2.578-32.316,5.417c-4.12,1.119-8.21,2.404-12.193,3.945c-7.667,2.967-16.064,8.704-23.29,1.73
			c-3.723-3.593-7.787-6.937-13.187-5.175c-5.199,1.695-7.871,7.75-10.15,12.223c1.122-0.156,2.243-0.312,3.365-0.469
			c1.273-4.931,3.033-9.775,4.83-14.533c2.163-5.727,4.624-13.569,9.602-17.524c1.553-1.233,3.614,5.867,3.57,6.763
			c-0.205,4.119-7.209,5.25-10.214,6.018c-7.796,1.988-16.489,3.037-23.11,7.987c-6.222,4.652-10.29,11.706-16.3,16.613
			c-1.598,1.305-1.549,0.334-1.822-1.394c-0.351-2.211,0.07-4.716,0.428-6.904c0.544-3.317,1.939-6.569,3.177-9.672
			c3.331-8.357,7.364-16.586,12.18-24.189c0.842-1.328,1.749-2.611,2.718-3.849c0.418-0.532,0.871-1.039,1.355-1.511
			c1.511-1.469-0.526,0.562-0.542,0.428c0.507,4.157,0.052,8.515-2.126,12.152c-5.109,8.537-18.795,9.352-27.363,12.029
			c-9.794,3.061-18.177,8.482-20.925,18.895c-0.301,1.142,3.033,0.532,3.367-0.469c0.078-0.236,0.156-0.472,0.235-0.708
			c-0.911,0.364-1.822,0.729-2.733,1.092c-0.056,0.022-0.111,0.045-0.168,0.067c0.496-0.404,0.991-0.809,1.486-1.213
			c-0.236,0.079-0.472,0.157-0.707,0.236c0.629,0.175,1.258,0.351,1.887,0.525c1.683-11.539,1.647-23.619,6.703-34.361
			c-1.121,0.156-2.244,0.312-3.365,0.469c-1.138,12.63-19.702,17.408-29.641,19.991c-9.756,2.536-19.338,3.303-29.346,3.573
			c-11.256,0.304-22.618,0.783-33.672,3.075c-5.854,1.215-17.289,4.091-16.29,12.127C21.034,95.801,24.433,95.055,24.286,93.882
			L24.286,93.882z"/>
	</g>
</g>
<rect x="86.369" y="107.419" fill="none" width="160.631" height="10.45"/>
<text transform="matrix(1 0 0 1 120.8848 113.4189)" fill="#414042" font-family="'Cinzel-Regular'" font-size="10">hanghieus.com</text>
</svg>
