<?xml version="1.0" encoding="utf-8"?>
<!-- Generator: Adobe Illustrator 16.0.0, SVG Export Plug-In . SVG Version: 6.00 Build 0)  -->
<!DOCTYPE svg PUBLIC "-//W3C//DTD SVG 1.1//EN" "http://www.w3.org/Graphics/SVG/1.1/DTD/svg11.dtd">
<svg version="1.1" id="Livello_1" xmlns="http://www.w3.org/2000/svg" xmlns:xlink="http://www.w3.org/1999/xlink" x="0px" y="0px"
	 width="310px" height="168px" viewBox="0 0 310 168" enable-background="new 0 0 310 168" xml:space="preserve">
<circle fill="#C4E4D3" cx="166.796" cy="84" r="63.734"/>
<g>
	<g>
		<path fill="#414042" d="M24.287,93.882C23.064,84.04,42.895,83.14,49.031,82.5c10.221-1.065,20.478-0.895,30.721-1.467
			c10.564-0.59,21.205-3.137,31.156-6.633c8.454-2.97,21.379-8.459,22.314-18.849c0.125-1.385-2.984-0.342-3.365,0.469
			c-5.057,10.742-5.021,22.822-6.704,34.361c-0.127,0.869,1.432,0.678,1.886,0.525c0.236-0.078,0.472-0.157,0.708-0.235
			c0.457-0.152,1.625-0.516,1.485-1.213c-0.026-0.131-0.053-0.263-0.078-0.394c-0.055-0.273-0.422-0.361-0.639-0.404
			c-0.132-0.026-0.263-0.053-0.394-0.079c-0.797-0.159-2.436,0.198-2.733,1.092c-0.078,0.236-0.157,0.472-0.235,0.708
			c1.122-0.156,2.243-0.312,3.365-0.469c4.001-15.161,19.271-17.045,32.184-20.831c5.008-1.468,10.121-3.426,13.88-7.175
			c4.438-4.425,4.947-10.716,4.226-16.629c-0.06-0.159-0.171-0.266-0.334-0.322c-3.908-1.637-7.409,4.065-9.085,6.565
			c-4.699,7.009-8.389,14.823-11.726,22.551c-2.716,6.291-5.795,13.5-4.683,20.519c0.853,5.384,7.67,0.421,9.519-1.284
			c5.81-5.358,10.17-12.976,17.259-16.768c7.963-4.26,17.633-4.109,25.868-7.731c5.562-2.447,6.686-6.734,3.379-11.824
			c-2.221-3.417-6.753-1.547-8.927,0.86c-4.275,4.731-6.67,11.31-8.919,17.167c-1.821,4.743-3.558,9.608-4.829,14.533
			c-0.325,1.258,2.955,0.336,3.365-0.469c1.533-3.009,3.117-5.924,5.285-8.521c3.778-4.526,8.648,0.343,11.537,3.218
			c3.779,3.761,7.615,4.468,12.741,3.674c8.343-1.291,16.219-6.19,24.358-8.561c9.135-2.66,18.548-4.623,28.028-5.481
			c4.839-0.438,17.632-1.724,17.982,5.719c0.046,0.961,3.436,0.305,3.379-0.905c-0.326-6.911-10.676-6.865-15.54-6.815
			c-10.877,0.113-21.866,2.578-32.316,5.417c-4.12,1.12-8.21,2.405-12.193,3.946c-7.667,2.967-16.064,8.704-23.29,1.73
			c-3.723-3.593-7.787-6.936-13.187-5.175c-5.199,1.696-7.871,7.75-10.15,12.223c1.121-0.156,2.244-0.312,3.365-0.469
			c1.273-4.931,3.033-9.775,4.83-14.533c2.163-5.727,4.624-13.57,9.602-17.525c1.553-1.233,3.614,5.867,3.57,6.764
			c-0.205,4.118-7.209,5.25-10.214,6.016c-7.796,1.989-16.489,3.037-23.11,7.987c-6.221,4.652-10.29,11.707-16.3,16.614
			c-1.598,1.305-1.549,0.334-1.823-1.394c-0.35-2.211,0.07-4.716,0.43-6.904c0.543-3.318,1.938-6.57,3.176-9.672
			c3.331-8.358,7.365-16.585,12.18-24.189c0.842-1.328,1.749-2.611,2.718-3.849c0.417-0.532,0.871-1.039,1.356-1.511
			c1.51-1.469-0.527,0.562-0.543,0.428c0.507,4.157,0.052,8.514-2.126,12.152c-5.109,8.537-18.795,9.351-27.363,12.029
			c-9.795,3.062-18.177,8.483-20.924,18.895c-0.302,1.142,3.032,0.532,3.365-0.469c0.079-0.236,0.157-0.472,0.236-0.708
			c-0.911,0.364-1.822,0.729-2.733,1.092c-0.056,0.022-0.111,0.045-0.167,0.067c0.495-0.404,0.99-0.809,1.485-1.213
			c-0.236,0.079-0.472,0.157-0.707,0.236c0.629,0.175,1.257,0.351,1.886,0.525c1.684-11.539,1.648-23.62,6.704-34.361
			c-1.121,0.156-2.244,0.312-3.365,0.469c-1.138,12.629-19.702,17.408-29.64,19.991c-9.757,2.537-19.339,3.302-29.347,3.573
			c-11.256,0.304-22.618,0.783-33.672,3.076c-5.855,1.215-17.289,4.091-16.291,12.127C21.034,95.801,24.433,95.055,24.287,93.882
			L24.287,93.882z"/>
	</g>
</g>
<g>
	<path fill="#414042" d="M126.542,113.319c0.174,0,0.322-0.061,0.445-0.181s0.189-0.267,0.195-0.439v-2.59h-4.09v2.579
		c0,0.174,0.062,0.322,0.189,0.445c0.127,0.124,0.277,0.186,0.451,0.186h0.129v0.1h-2.189v-0.1h0.131
		c0.172,0,0.32-0.062,0.443-0.186c0.123-0.123,0.189-0.271,0.195-0.445v-5.55c-0.006-0.173-0.072-0.319-0.195-0.439
		s-0.271-0.181-0.443-0.181h-0.131v-0.1h2.189v0.1h-0.129c-0.174,0-0.322,0.061-0.445,0.181s-0.189,0.267-0.195,0.439v2.67h4.09
		v-2.67c-0.006-0.239-0.113-0.42-0.32-0.54c-0.1-0.053-0.207-0.08-0.32-0.08h-0.129v-0.1h2.189v0.1h-0.129
		c-0.174,0-0.322,0.062-0.445,0.186s-0.189,0.271-0.195,0.445v5.539c0.006,0.174,0.072,0.322,0.195,0.445
		c0.123,0.124,0.271,0.186,0.445,0.186h0.129v0.1h-2.189v-0.1H126.542z"/>
	<path fill="#414042" d="M136.612,113.319h0.08v0.1h-2.25v-0.1h0.09c0.141,0,0.246-0.045,0.314-0.136
		c0.07-0.09,0.105-0.175,0.105-0.255s-0.014-0.16-0.039-0.24l-0.641-1.699h-2.699l-0.67,1.71c-0.027,0.08-0.041,0.158-0.041,0.234
		c0,0.077,0.035,0.16,0.105,0.25c0.07,0.091,0.176,0.136,0.314,0.136h0.09v0.1h-2.01v-0.1h0.09c0.168,0,0.33-0.054,0.49-0.16
		s0.291-0.264,0.391-0.471l2.26-5.38c0.246-0.54,0.369-0.883,0.369-1.029h0.09l2.682,6.409c0.092,0.207,0.219,0.364,0.379,0.471
		S136.438,113.319,136.612,113.319z M131.692,110.688h2.461l-1.201-3.21L131.692,110.688z"/>
	<path fill="#414042" d="M144.603,106.519c-0.166,0-0.311,0.059-0.43,0.176c-0.119,0.116-0.184,0.258-0.189,0.425v5.16
		c0,0.387,0.023,0.753,0.07,1.1l0.02,0.18h-0.09l-5.451-5.819v4.979c0.008,0.233,0.111,0.407,0.311,0.521
		c0.094,0.053,0.193,0.08,0.301,0.08h0.189v0.1h-2.061v-0.1h0.189c0.168,0,0.311-0.059,0.432-0.176
		c0.119-0.116,0.18-0.261,0.18-0.435v-5.19c0-0.406-0.023-0.77-0.07-1.09l-0.02-0.16h0.1l5.449,5.82v-4.96
		c-0.006-0.173-0.07-0.318-0.189-0.435c-0.119-0.117-0.264-0.176-0.43-0.176h-0.189v-0.1h2.059v0.1H144.603z"/>
	<path fill="#414042" d="M146.878,112.549c-0.664-0.666-0.996-1.543-0.996-2.63s0.332-1.965,0.996-2.635
		c0.662-0.67,1.527-1.005,2.596-1.005c0.92,0,1.729,0.227,2.43,0.68l0.199,1.41h-0.09c-0.146-0.573-0.441-1.016-0.885-1.325
		s-0.996-0.465-1.654-0.465c-0.848,0-1.533,0.307-2.057,0.92s-0.785,1.42-0.785,2.42s0.262,1.805,0.785,2.415
		s1.209,0.918,2.057,0.925c0.432,0,0.844-0.076,1.234-0.229s0.73-0.367,1.025-0.641v-1.77c0-0.146-0.045-0.259-0.135-0.335
		c-0.092-0.077-0.217-0.115-0.375-0.115h-0.16v-0.1h1.959v0.1h-0.15c-0.166,0-0.293,0.038-0.379,0.115
		c-0.088,0.076-0.127,0.188-0.121,0.335v1.649c-0.172,0.228-0.379,0.431-0.619,0.61s-0.562,0.339-0.965,0.475
		c-0.404,0.137-0.842,0.205-1.314,0.205C148.405,113.552,147.54,113.216,146.878,112.549z"/>
	<path fill="#414042" d="M158.731,113.319c0.174,0,0.322-0.061,0.445-0.181s0.189-0.267,0.195-0.439v-2.59h-4.09v2.579
		c0,0.174,0.062,0.322,0.189,0.445c0.127,0.124,0.277,0.186,0.451,0.186h0.129v0.1h-2.189v-0.1h0.131
		c0.172,0,0.32-0.062,0.443-0.186c0.123-0.123,0.189-0.271,0.195-0.445v-5.55c-0.006-0.173-0.072-0.319-0.195-0.439
		s-0.271-0.181-0.443-0.181h-0.131v-0.1h2.189v0.1h-0.129c-0.174,0-0.322,0.061-0.445,0.181s-0.189,0.267-0.195,0.439v2.67h4.09
		v-2.67c-0.006-0.239-0.113-0.42-0.32-0.54c-0.1-0.053-0.207-0.08-0.32-0.08h-0.129v-0.1h2.189v0.1h-0.129
		c-0.174,0-0.322,0.062-0.445,0.186s-0.189,0.271-0.195,0.445v5.539c0.006,0.174,0.072,0.322,0.195,0.445
		c0.123,0.124,0.271,0.186,0.445,0.186h0.129v0.1h-2.189v-0.1H158.731z"/>
	<path fill="#414042" d="M162.372,113.319c0.174,0,0.322-0.062,0.445-0.186c0.123-0.123,0.188-0.271,0.195-0.445v-5.55
		c-0.008-0.173-0.072-0.319-0.195-0.439s-0.271-0.181-0.445-0.181h-0.131v-0.1h2.191v0.1h-0.131c-0.174,0-0.322,0.061-0.445,0.181
		s-0.188,0.267-0.195,0.439v5.55c0,0.174,0.064,0.322,0.191,0.445c0.127,0.124,0.275,0.186,0.449,0.186h0.131v0.1h-2.191v-0.1
		H162.372z"/>
	<path fill="#414042" d="M166.003,113.319c0.172,0,0.32-0.062,0.443-0.186c0.123-0.123,0.189-0.271,0.195-0.445v-5.6
		c-0.02-0.16-0.09-0.295-0.209-0.405c-0.121-0.109-0.264-0.165-0.43-0.165h-0.121l-0.01-0.1h2.93c0.207,0,0.432-0.02,0.676-0.06
		c0.242-0.04,0.414-0.08,0.514-0.12v1.26h-0.1v-0.18c0-0.16-0.055-0.297-0.164-0.41c-0.111-0.113-0.242-0.174-0.396-0.181h-2.039
		v3.091h1.689c0.135-0.007,0.248-0.057,0.34-0.15c0.094-0.094,0.141-0.21,0.141-0.35v-0.141h0.1v1.58h-0.1v-0.149
		c0-0.134-0.045-0.247-0.135-0.341c-0.09-0.093-0.201-0.143-0.336-0.149h-1.699v2.99h1.43c0.494,0,0.871-0.11,1.131-0.33
		c0.26-0.221,0.477-0.547,0.65-0.98h0.1l-0.58,1.62h-4.15v-0.1H166.003z"/>
	<path fill="#414042" d="M178.642,106.519h-0.16c-0.141,0-0.262,0.045-0.365,0.136c-0.104,0.09-0.158,0.201-0.164,0.335v3.96
		c0,0.779-0.248,1.41-0.74,1.89c-0.494,0.48-1.15,0.72-1.971,0.72s-1.484-0.238-1.994-0.715s-0.766-1.104-0.766-1.885v-3.94
		c0-0.199-0.086-0.346-0.26-0.439c-0.08-0.04-0.17-0.061-0.27-0.061h-0.16v-0.1h2.029v0.1h-0.16c-0.146,0-0.27,0.045-0.369,0.136
		c-0.1,0.09-0.154,0.205-0.16,0.345v3.82c0,0.727,0.195,1.313,0.584,1.76c0.391,0.446,0.912,0.67,1.566,0.67
		c0.652,0,1.182-0.212,1.59-0.635c0.406-0.424,0.609-0.979,0.609-1.665v-3.95c-0.006-0.14-0.061-0.255-0.16-0.345
		c-0.1-0.091-0.223-0.136-0.369-0.136h-0.16v-0.1h1.85V106.519z"/>
	<path fill="#414042" d="M180.001,113.009c-0.02-0.093-0.029-0.273-0.029-0.54s0.049-0.55,0.15-0.85h0.09
		c-0.008,0.073-0.012,0.146-0.012,0.22c0,0.407,0.125,0.745,0.371,1.015c0.246,0.271,0.572,0.405,0.98,0.405
		c0.42,0,0.764-0.126,1.035-0.38c0.27-0.253,0.404-0.571,0.404-0.955c0-0.383-0.131-0.695-0.391-0.935l-1.92-1.78
		c-0.359-0.333-0.539-0.736-0.539-1.21s0.158-0.878,0.475-1.215s0.744-0.505,1.285-0.505c0.254,0,0.539,0.033,0.859,0.1h0.391v1.23
		h-0.09c0-0.313-0.109-0.563-0.326-0.75s-0.494-0.28-0.834-0.28s-0.625,0.113-0.855,0.34s-0.346,0.51-0.346,0.85
		c0,0.341,0.135,0.634,0.4,0.881l1.971,1.819c0.334,0.307,0.5,0.727,0.5,1.26c0,0.534-0.17,0.972-0.51,1.315
		s-0.793,0.515-1.361,0.515c-0.293,0-0.604-0.045-0.934-0.135S180.181,113.195,180.001,113.009z"/>
	<path fill="#414042" d="M185.61,113.329c-0.086,0.087-0.193,0.13-0.318,0.13c-0.127,0-0.234-0.043-0.32-0.13
		c-0.088-0.087-0.131-0.193-0.131-0.32c0-0.126,0.043-0.233,0.131-0.32c0.086-0.086,0.193-0.13,0.32-0.13
		c0.125,0,0.232,0.044,0.318,0.13c0.088,0.087,0.131,0.194,0.131,0.32C185.741,113.136,185.698,113.242,185.61,113.329z"/>
	<path fill="#414042" d="M188.026,112.549c-0.664-0.666-0.996-1.545-0.996-2.635s0.332-1.969,0.996-2.635
		c0.662-0.667,1.541-1,2.635-1c0.893,0,1.684,0.227,2.369,0.68l0.201,1.41h-0.09c-0.146-0.573-0.443-1.016-0.891-1.325
		s-0.977-0.465-1.59-0.465c-0.873,0-1.572,0.304-2.096,0.91s-0.785,1.41-0.785,2.41s0.26,1.805,0.775,2.414
		c0.518,0.61,1.199,0.926,2.045,0.945c0.748,0,1.371-0.203,1.871-0.609c0.539-0.44,0.865-1.157,0.979-2.15h0.08l-0.119,1.57
		c-0.607,0.993-1.543,1.489-2.811,1.489C189.548,113.552,188.688,113.216,188.026,112.549z"/>
	<path fill="#414042" d="M195.976,107.284c0.664-0.67,1.529-1.005,2.596-1.005s1.934,0.335,2.6,1.005s1,1.548,1,2.635
		s-0.334,1.965-1,2.635s-1.533,1.005-2.6,1.005s-1.932-0.335-2.596-1.005s-0.994-1.548-0.994-2.635S195.312,107.954,195.976,107.284
		z M196.526,112.339c0.516,0.613,1.199,0.92,2.049,0.92s1.533-0.307,2.051-0.92c0.516-0.613,0.775-1.42,0.775-2.42
		c0-0.66-0.117-1.243-0.352-1.75c-0.232-0.507-0.564-0.898-0.994-1.175s-0.926-0.415-1.484-0.415c-0.848,0-1.529,0.307-2.045,0.92
		c-0.518,0.613-0.775,1.42-0.775,2.42S196.009,111.726,196.526,112.339z"/>
	<path fill="#414042" d="M211.761,113.319h0.16v0.1h-2.17v-0.09h0.15c0.113,0,0.209-0.045,0.289-0.135
		c0.08-0.091,0.113-0.188,0.102-0.295l-0.451-5.03l-2.1,4.67c-0.188,0.406-0.301,0.747-0.34,1.02h-0.1l-2.561-5.55l-0.43,4.891
		c-0.014,0.106,0.02,0.204,0.1,0.295c0.08,0.09,0.174,0.135,0.279,0.135h0.16v0.09h-1.939v-0.1h0.16c0.186,0,0.348-0.057,0.484-0.17
		s0.219-0.267,0.246-0.461l0.75-6.409h0.1l2.789,6.029l2.73-6.029h0.09l0.77,6.409c0.035,0.268,0.168,0.454,0.4,0.561
		C211.53,113.296,211.642,113.319,211.761,113.319z"/>
</g>
</svg>
