<svg id="fdbd1502-4e2f-4cb3-9daf-6aa3b36df860" data-name="Livello 1" xmlns="http://www.w3.org/2000/svg" viewBox="0 0 310 168"><defs><style>.bb8b3aa1-c00f-40fc-b581-99016a7df4a3{fill:#c4e4d3;}.\35 0f627ba-c05d-44df-9a0b-b56a747b96bc,.\38 40d9745-68bf-47f3-8c92-f22fdf140b77{fill:#414042;}.\38 40d9745-68bf-47f3-8c92-f22fdf140b77{font-size:7px;font-family:AGaramondPro-Regular, Adobe Garamond Pro;letter-spacing:0.07em;}</style></defs><title>FINAL-Ivan logo</title><circle class="bb8b3aa1-c00f-40fc-b581-99016a7df4a3" cx="166.68" cy="84" r="63.73"/><path class="50f627ba-c05d-44df-9a0b-b56a747b96bc" d="M24.29,96.88C23.06,87,42.89,86.14,49,85.5c10.22-1.07,20.48-.89,30.72-1.47a114.47,114.47,0,0,0,31.16-6.63c8.45-3,21.38-8.46,22.31-18.85.13-1.38-3-.34-3.37.47-5.06,10.74-5,22.82-6.71,34.36-.13.87,1.43.68,1.89.53l.71-.24c.46-.15,1.63-.52,1.49-1.21l-.08-.39c-.05-.27-.42-.36-.64-.4l-.39-.08c-.8-.16-2.44.2-2.73,1.09l-.24.71,3.37-.47c4-15.16,19.27-17,32.18-20.83,5-1.47,10.12-3.43,13.88-7.18,4.44-4.42,4.95-10.72,4.23-16.63a.52.52,0,0,0-.33-.32c-3.91-1.64-7.41,4.07-9.08,6.57a140.1,140.1,0,0,0-11.73,22.55c-2.72,6.29-5.79,13.5-4.68,20.52.85,5.38,7.67.42,9.52-1.28,5.81-5.36,10.17-13,17.26-16.77,8-4.26,17.63-4.11,25.87-7.73,5.56-2.45,6.69-6.73,3.38-11.83-2.22-3.42-6.75-1.55-8.93.86-4.28,4.73-6.67,11.31-8.92,17.17a135,135,0,0,0-4.83,14.53c-.33,1.26,3,.34,3.37-.47A44.43,44.43,0,0,1,193,83.55c3.78-4.53,8.65.34,11.54,3.22,3.78,3.76,7.62,4.47,12.74,3.67,8.34-1.29,16.22-6.19,24.36-8.56a148.54,148.54,0,0,1,28-5.48c4.84-.44,17.63-1.72,18,5.72,0,1,3.44.31,3.38-.91-.33-6.91-10.68-6.87-15.54-6.82-10.88.11-21.87,2.58-32.32,5.42A123.55,123.55,0,0,0,231,83.76c-7.67,3-16.06,8.7-23.29,1.73-3.72-3.59-7.79-6.94-13.19-5.17-5.2,1.7-7.87,7.75-10.15,12.22l3.37-.47a141.94,141.94,0,0,1,4.83-14.53c2.16-5.73,4.62-13.57,9.6-17.52,1.55-1.23,3.61,5.87,3.57,6.76-.21,4.12-7.21,5.25-10.21,6-7.8,2-16.49,3-23.11,8-6.22,4.65-10.29,11.71-16.3,16.61-1.6,1.3-1.55.33-1.82-1.39a22.66,22.66,0,0,1,.43-6.9,47.74,47.74,0,0,1,3.18-9.67A147.16,147.16,0,0,1,170,55.24q1.26-2,2.72-3.85a15.31,15.31,0,0,1,1.36-1.51c1.51-1.47-.53.56-.54.43a19.07,19.07,0,0,1-2.13,12.15c-5.11,8.54-18.79,9.35-27.36,12-9.79,3.06-18.18,8.48-20.92,18.89-.3,1.14,3,.53,3.37-.47l.24-.71L124,93.3l-.17.07,1.49-1.21-.71.24,1.89.53c1.68-11.54,1.65-23.62,6.7-34.36l-3.37.47c-1.14,12.63-19.7,17.41-29.64,20-9.76,2.54-19.34,3.3-29.35,3.57-11.26.3-22.62.78-33.67,3.08-5.85,1.21-17.29,4.09-16.29,12.13.13,1,3.52.27,3.38-.9Z"/><text class="840d9745-68bf-47f3-8c92-f22fdf140b77" transform="translate(133.54 114.53)">HANGHIEUS.COM</text></svg>